<svg xmlns="http://www.w3.org/2000/svg" xmlns:xlink="http://www.w3.org/1999/xlink" width="800" zoomAndPan="magnify" viewBox="0 0 600 599.999999" height="800" preserveAspectRatio="xMidYMid meet" version="1.0"><path fill="#ffffff" d="M 595.199219 335.101562 C 594.300781 335.101562 593.398438 335.699219 592.800781 337.199219 C 586.800781 354.601562 578.398438 365.101562 571.5 365.101562 C 567.601562 365.101562 566.101562 360.601562 566.101562 354 C 566.101562 336.898438 576.300781 300.601562 581.398438 283.800781 C 582 281.699219 582.300781 279.898438 582.300781 278.398438 C 582.300781 273.601562 579.601562 271.199219 573 271.199219 C 566.101562 271.199219 558.300781 273.898438 551.101562 286.800781 C 548.699219 275.398438 540.898438 270.601562 530.101562 270.601562 C 517.800781 270.601562 505.800781 278.699219 495.898438 291.601562 C 486 304.5 474.300781 308.699219 465.601562 306.601562 C 471.898438 291.300781 474.300781 279.601562 474.300781 271.199219 C 474.300781 257.699219 467.699219 249.601562 456.898438 249.601562 C 440.699219 249.601562 431.398438 265.199219 431.398438 281.398438 C 431.398438 294 437.101562 306.898438 449.699219 313.199219 C 439.199219 336.898438 423.898438 358.5 417.898438 358.5 C 410.398438 358.5 408 321.601562 408.601562 295.199219 C 408.898438 280.199219 410.101562 279.300781 410.101562 274.800781 C 410.101562 272.101562 408.300781 270.300781 401.398438 270.300781 C 385.5 270.300781 380.398438 283.800781 379.800781 299.398438 C 379.5 305.398438 378.601562 311.101562 377.101562 316.800781 C 370.5 340.5 356.699219 358.800781 347.699219 358.800781 C 343.5 358.800781 342.300781 354.601562 342.300781 349.199219 C 342.300781 332.101562 351.898438 310.5 351.898438 292.199219 C 351.898438 278.699219 345.898438 270.300781 334.800781 270.300781 C 321.601562 270.300781 304.5 285.898438 288 315 C 293.398438 292.800781 295.5 271.199219 279.601562 271.199219 C 276 271.199219 272.699219 272.101562 269.699219 273.898438 C 267.601562 274.800781 266.398438 276.898438 266.398438 279.300781 C 267.898438 303 247.199219 363.898438 227.699219 363.898438 C 224.101562 363.898438 222.300781 360 222.300781 353.699219 C 222.300781 336.601562 232.5 300.300781 237.601562 283.5 C 238.199219 281.398438 238.5 279.601562 238.5 277.800781 C 238.5 273.300781 235.800781 270.898438 229.199219 270.898438 C 222.300781 270.898438 214.5 273.601562 207.300781 286.5 C 204.601562 275.101562 197.101562 270.300781 186.300781 270.300781 C 168.601562 270.300781 149.101562 288.898438 140.398438 313.199219 C 128.699219 345.601562 105.601562 377.101562 74.101562 377.101562 C 45.601562 377.101562 30.601562 353.398438 30.601562 315.898438 C 30.601562 261.601562 70.5 217.5 99.898438 217.5 C 114 217.5 120.601562 226.5 120.601562 240.300781 C 120.601562 257.101562 111.300781 264.601562 111.300781 271.199219 C 111.300781 273 112.800781 275.101562 116.101562 275.101562 C 129 275.101562 144 260.101562 144 239.398438 C 144 218.699219 127.800781 204 98.398438 204 C 49.5 204 0.601562 252.898438 0.601562 315.898438 C 0.601562 366 25.199219 396 67.800781 396 C 96.898438 396 122.398438 373.5 135.898438 347.101562 C 137.398438 369 147.300781 380.398438 162.601562 380.398438 C 176.101562 380.398438 186.898438 372.300781 195.300781 358.199219 C 198.601562 372.898438 207 380.101562 218.101562 380.101562 C 230.699219 380.101562 241.5 372 251.398438 357.300781 C 251.398438 369 253.800781 380.101562 264 380.101562 C 268.800781 380.101562 274.5 378.898438 275.398438 374.699219 C 286.199219 330.601562 312.601562 294.300781 320.699219 294.300781 C 323.101562 294.300781 323.699219 296.699219 323.699219 299.398438 C 323.699219 311.398438 315.300781 336 315.300781 351.601562 C 315.300781 368.699219 322.5 379.800781 337.5 379.800781 C 354 379.800781 370.800781 359.699219 381.898438 330 C 385.5 357.601562 393 379.800781 404.699219 379.800781 C 419.101562 379.800781 445.199219 349.199219 460.800781 316.800781 C 466.800781 317.699219 476.101562 317.398438 485.101562 311.101562 C 481.199219 320.699219 479.101562 331.199219 479.101562 341.398438 C 479.101562 371.398438 493.5 379.800781 505.800781 379.800781 C 519.300781 379.800781 530.101562 371.699219 538.5 357.601562 C 541.199219 370.199219 548.398438 379.5 561.300781 379.5 C 581.398438 379.5 599.101562 358.800781 599.101562 341.699219 C 599.398438 338.101562 597.300781 335.101562 595.199219 335.101562 Z M 175.199219 363.601562 C 167.101562 363.601562 163.800781 355.5 163.800781 343.199219 C 163.800781 321.898438 178.5 286.199219 193.800781 286.199219 C 200.398438 286.199219 203.101562 294 203.101562 303.898438 C 203.101562 325.5 189.300781 363.601562 175.199219 363.601562 Z M 455.101562 300 C 450.300781 294.300781 448.5 286.199219 448.5 279.300781 C 448.5 270.601562 451.800781 263.398438 455.398438 263.398438 C 459 263.398438 460.5 267 460.5 272.398438 C 460.199219 280.800781 457.199219 293.699219 455.101562 300 Z M 518.398438 363.601562 C 510.300781 363.601562 507 354 507 343.199219 C 507 322.5 521.699219 286.199219 537 286.199219 C 543.601562 286.199219 546 294 546 303.898438 C 546.300781 325.5 532.800781 363.601562 518.398438 363.601562 Z M 518.398438 363.601562 " fill-opacity="1" fill-rule="nonzero"/></svg>