<svg xmlns="http://www.w3.org/2000/svg" xmlns:xlink="http://www.w3.org/1999/xlink" width="800" zoomAndPan="magnify" viewBox="0 0 600 599.999999" height="800" preserveAspectRatio="xMidYMid meet" version="1.0"><defs><clipPath id="23f913e500"><path d="M 171 232.632812 L 267 232.632812 L 267 335 L 171 335 Z M 171 232.632812 " clip-rule="nonzero"/></clipPath><clipPath id="0941cbfbfa"><path d="M 406 232.632812 L 496 232.632812 L 496 337 L 406 337 Z M 406 232.632812 " clip-rule="nonzero"/></clipPath><clipPath id="9eec3528de"><path d="M 490 234 L 600 234 L 600 367.632812 L 490 367.632812 Z M 490 234 " clip-rule="nonzero"/></clipPath></defs><path fill="#ffffff" d="M 48.199219 265.199219 C 37.082031 265.199219 31.1875 271.792969 31.1875 283.5 L 31.1875 334.097656 L 0.648438 334.097656 L 0.648438 234.921875 L 17.796875 234.921875 L 28.511719 246.363281 C 33.605469 238.960938 41.238281 234.921875 51.550781 234.921875 L 60.792969 234.921875 L 60.792969 265.199219 Z M 48.199219 265.199219 " fill-opacity="1" fill-rule="nonzero"/><path fill="#ffffff" d="M 68.148438 234.921875 L 98.683594 234.921875 L 98.683594 290.636719 C 98.683594 301 105.378906 308.128906 115.296875 308.128906 C 125.210938 308.128906 131.769531 301 131.769531 290.636719 L 131.769531 234.921875 L 162.308594 234.921875 L 162.308594 334.105469 L 145.160156 334.105469 L 134.714844 322.9375 C 127.621094 331.417969 117.570312 336.390625 105.789062 336.390625 C 83.554688 336.390625 68.15625 320.105469 68.15625 296.285156 L 68.15625 234.921875 Z M 68.148438 234.921875 " fill-opacity="1" fill-rule="nonzero"/><g clip-path="url(#23f913e500)"><path fill="#ffffff" d="M 266.246094 334.105469 L 235.707031 334.105469 L 235.707031 278.792969 C 235.707031 268.160156 228.875 260.894531 218.699219 260.894531 C 208.519531 260.894531 201.6875 268.160156 201.6875 278.792969 L 201.6875 334.105469 L 171.148438 334.105469 L 171.148438 234.921875 L 188.296875 234.921875 L 198.875 246.226562 C 205.972656 237.617188 216.152344 232.632812 228.210938 232.632812 C 250.714844 232.632812 266.253906 249.1875 266.253906 273.277344 L 266.253906 334.105469 Z M 266.246094 334.105469 " fill-opacity="1" fill-rule="nonzero"/></g><path fill="#ffffff" d="M 262.902344 234.921875 L 294.777344 234.921875 L 309.777344 291.175781 L 327.859375 234.921875 L 350.09375 234.921875 L 368.175781 291.441406 L 383.175781 234.921875 L 412.511719 234.921875 L 381.441406 334.105469 L 354.785156 334.105469 L 337.238281 279.605469 L 319.554688 334.105469 L 294.511719 334.105469 Z M 262.902344 234.921875 " fill-opacity="1" fill-rule="nonzero"/><g clip-path="url(#0941cbfbfa)"><path fill="#ffffff" d="M 454.167969 232.632812 C 480.148438 232.632812 495.824219 247.039062 495.824219 270.984375 L 495.824219 334.105469 L 478.546875 334.105469 L 469.578125 324.417969 C 462.878906 332.222656 453.238281 336.390625 441.585938 336.390625 C 420.828125 336.390625 406.226562 323.476562 406.226562 305.167969 C 406.226562 285.65625 420.425781 274.351562 445.070312 274.351562 L 466.097656 274.351562 L 466.097656 271.121094 C 466.097656 262.640625 461.414062 258.070312 452.574219 258.070312 C 444.667969 258.070312 439.582031 262.109375 439.046875 268.835938 L 409.179688 268.835938 C 410.917969 246.902344 428.601562 232.632812 454.183594 232.632812 Z M 466.085938 298.039062 L 466.085938 293.734375 L 448.273438 293.734375 C 440.640625 293.734375 436.21875 297.234375 436.21875 303.285156 C 436.21875 309.746094 441.441406 313.648438 450.148438 313.648438 C 460.460938 313.648438 466.085938 308.265625 466.085938 298.039062 Z M 466.085938 298.039062 " fill-opacity="1" fill-rule="nonzero"/></g><g clip-path="url(#9eec3528de)"><path fill="#ffffff" d="M 545.917969 367.074219 L 513.640625 367.074219 L 530.914062 325.488281 L 490.863281 234.921875 L 526.496094 234.921875 L 547.253906 288.882812 L 566.8125 234.921875 L 599.085938 234.921875 Z M 545.917969 367.074219 " fill-opacity="1" fill-rule="nonzero"/></g></svg>